<?xml version="1.0" standalone="no"?>
<!DOCTYPE svg PUBLIC "-//W3C//DTD SVG 20010904//EN"
 "http://www.w3.org/TR/2001/REC-SVG-20010904/DTD/svg10.dtd">
<svg version="1.0" xmlns="http://www.w3.org/2000/svg"
 width="1080.000000pt" height="1080.000000pt" viewBox="0 0 1080.000000 1080.000000"
 preserveAspectRatio="xMidYMid meet">
<metadata>
Created by potrace 1.14, written by Peter Selinger 2001-2017
</metadata>
<g transform="translate(0.000000,1080.000000) scale(0.100000,-0.100000)"
fill="#000000" stroke="none">
<path d="M7325 10785 c104 -35 206 -65 220 -65 11 0 15 11 15 40 l0 40 -137
-1 c-129 -1 -135 -1 -98 -14z"/>
<path d="M7793 10783 c-1 -10 -10 -67 -21 -128 -11 -60 -22 -142 -25 -180 -3
-39 -8 -77 -11 -85 -3 -8 -10 -64 -16 -125 -5 -60 -12 -123 -14 -138 -7 -60
-66 -77 -66 -20 0 15 -6 62 -14 103 -17 87 -39 113 -90 105 -28 -4 -140 -14
-361 -31 -54 -4 -85 -11 -97 -23 -15 -14 -17 -60 -23 -421 -10 -700 -15 -939
-21 -955 -4 -10 0 -15 12 -15 16 0 17 -2 4 -11 -11 -7 29 -9 135 -5 83 3 234
9 336 12 l186 7 21 -28 c27 -34 36 -82 23 -117 -21 -54 -32 -57 -356 -66 -165
-5 -312 -5 -327 -1 -29 8 -38 -3 -38 -47 0 -28 3 -28 -71 -9 -32 8 -62 15 -66
14 -31 -5 -56 3 -60 21 -4 16 -7 17 -19 6 -16 -17 -54 -9 -54 10 0 8 -4 14
-10 14 -5 0 -8 43 -6 108 1 59 -1 112 -5 118 -5 5 -3 32 4 60 7 27 13 65 12
84 0 19 4 38 9 42 6 4 6 12 -2 20 -7 9 -8 19 -2 28 8 12 10 12 10 -3 0 -28 25
-14 28 15 2 14 12 34 22 43 10 9 16 23 13 31 -3 8 0 14 5 14 6 0 21 14 34 32
28 40 37 168 11 168 -11 0 -13 9 -8 43 7 49 -24 114 -65 135 -14 6 -47 39 -75
71 -27 33 -56 60 -62 60 -7 1 -13 8 -13 16 0 8 -17 23 -39 34 -43 22 -52 37
-40 66 15 39 10 125 -11 165 -11 22 -23 40 -26 40 -3 0 -2 -6 1 -12 4 -7 -8 4
-25 25 -33 39 -65 47 -84 23 -14 -19 -72 -26 -69 -8 2 6 -2 12 -8 12 -6 0 -9
-7 -5 -15 7 -20 -7 -19 -55 5 -22 12 -37 25 -34 30 4 6 2 10 -4 10 -5 0 -13
-10 -16 -21 -6 -17 -9 -19 -17 -8 -7 10 -11 11 -14 3 -5 -12 -44 -7 -44 5 0 4
-16 5 -35 3 -20 -2 -35 0 -35 6 0 6 -14 25 -30 44 -17 18 -54 67 -83 108 -39
55 -66 82 -102 102 -46 25 -58 27 -148 25 -70 -1 -100 -6 -106 -16 -7 -11 -18
-11 -57 -2 -27 7 -93 14 -148 16 -54 2 -101 6 -103 9 -2 2 -19 0 -36 -6 -78
-23 -255 -40 -457 -43 -130 -1 -226 -7 -243 -14 -16 -6 -38 -11 -49 -11 -12 0
-50 -13 -85 -30 -34 -16 -65 -30 -68 -30 -2 0 -24 -13 -48 -30 -24 -16 -65
-36 -92 -46 -106 -35 -211 -134 -272 -254 -13 -25 -41 -74 -63 -110 -21 -36
-47 -78 -56 -95 -21 -38 -44 -120 -44 -162 0 -34 -32 -117 -49 -127 -6 -4 -11
-22 -11 -40 0 -20 -8 -40 -20 -51 -13 -12 -20 -31 -20 -59 -2 -95 -2 -97 -19
-91 -9 2 -50 9 -91 15 -41 5 -138 21 -215 35 -77 13 -210 36 -295 51 -85 14
-222 39 -305 55 -82 17 -244 45 -360 64 -115 19 -273 46 -350 60 -77 14 -151
27 -165 29 -14 2 -52 8 -85 15 -259 50 -601 114 -650 122 -33 5 -127 23 -210
39 -136 27 -295 56 -520 95 -105 18 -224 41 -305 59 -36 7 -82 17 -102 20
l-38 7 0 -1077 0 -1076 33 6 c17 3 93 10 167 16 74 6 142 13 150 15 8 3 44 7
80 10 146 11 183 15 194 24 18 15 110 8 139 -12 19 -12 27 -26 27 -45 -1 -59
-28 -70 -225 -87 -38 -3 -77 -8 -85 -10 -8 -2 -60 -7 -115 -10 -55 -3 -138
-10 -185 -15 -47 -6 -105 -12 -130 -13 l-45 -3 -2 -568 c-2 -535 -2 -568 15
-561 9 4 29 7 44 6 16 -1 32 6 40 17 7 10 36 24 63 32 28 7 57 19 66 27 14 12
18 12 22 1 4 -10 9 -9 20 5 8 9 20 17 27 17 6 0 24 6 38 13 15 8 42 21 60 30
19 9 40 17 47 17 7 0 15 4 17 9 4 13 231 93 299 106 33 6 37 4 48 -22 22 -54
10 -163 -20 -170 -9 -3 -20 -11 -23 -19 -3 -8 -12 -14 -21 -14 -8 0 -15 -4
-15 -10 0 -5 -4 -10 -10 -10 -5 0 -20 -9 -32 -20 -13 -10 -25 -18 -28 -17 -3
1 -24 -13 -47 -30 -22 -18 -46 -33 -51 -33 -6 0 -13 -8 -17 -19 -3 -10 -22
-30 -43 -45 -20 -14 -33 -26 -29 -26 4 0 -13 -20 -39 -45 -25 -25 -50 -45 -56
-45 -5 0 -6 -9 -3 -20 5 -15 0 -22 -19 -30 -14 -5 -26 -14 -26 -20 0 -6 -5 -8
-10 -5 -6 3 -13 0 -16 -8 -3 -9 -28 -22 -55 -31 -44 -15 -52 -15 -72 -1 -14 8
-28 33 -35 61 -7 26 -21 58 -32 72 -11 13 -20 32 -20 40 0 8 -3 13 -6 9 -4 -3
-21 10 -39 29 -18 18 -35 34 -39 34 -3 0 -6 -1429 -6 -3175 l0 -3175 5400 0
5401 0 -5 1978 c-2 1087 -7 2015 -9 2062 -3 47 -8 135 -11 195 -4 61 -9 169
-11 240 -3 72 -7 166 -10 210 -2 44 -7 130 -10 190 -3 61 -10 155 -16 209 -6
55 -12 149 -14 208 -2 59 -11 183 -20 275 -9 92 -18 189 -20 217 -2 28 -9 107
-15 176 -6 69 -13 176 -15 238 -3 63 -8 118 -11 124 -3 5 -3 20 0 33 3 13 2
26 -3 29 -5 3 -9 60 -10 126 -1 90 2 120 11 120 10 0 9 3 -1 9 -11 7 -11 21 0
82 7 41 12 79 11 85 -1 6 9 21 23 34 14 13 25 29 25 35 0 7 24 19 53 27 l52
15 3 73 c3 80 -2 89 -53 90 -16 0 -37 6 -46 13 -21 16 -62 87 -54 95 3 3 -2
14 -12 24 -9 11 -11 18 -5 18 7 0 12 7 12 15 0 8 -6 12 -14 9 -11 -4 -13 10
-9 76 3 44 2 88 -2 98 -12 28 -13 56 -3 70 6 6 8 12 6 12 -3 0 -2 19 2 42 6
31 4 45 -7 56 -10 11 -13 26 -9 51 4 20 9 92 11 161 7 169 8 174 19 181 5 4 5
15 0 25 -12 26 -11 127 1 136 6 5 5 8 -2 8 -7 0 -13 5 -13 11 0 6 7 8 16 5 11
-4 14 -1 10 12 -12 37 -17 134 -7 128 14 -9 25 14 13 26 -6 6 -5 24 3 52 7 23
11 55 9 71 -2 17 1 46 7 67 6 24 6 45 -1 63 -9 22 -7 32 6 47 13 14 15 21 6
30 -9 9 -5 16 16 31 15 10 19 17 10 13 -21 -6 -23 6 -7 36 8 15 8 22 0 28 -9
5 -8 10 4 20 8 7 15 18 15 25 0 8 6 15 13 18 9 3 8 8 -3 22 -11 14 -12 19 -2
22 6 3 12 10 12 18 0 7 6 18 13 24 8 6 12 23 10 38 -3 19 3 35 16 50 21 22 21
26 21 898 l0 875 -1503 0 c-1424 0 -1503 -1 -1504 -17z m2523 -800 c-10 -10
-19 5 -10 18 6 11 8 11 12 0 2 -7 1 -15 -2 -18z m-3749 -50 c-3 -10 -5 -4 -5
12 0 17 2 24 5 18 2 -7 2 -21 0 -30z m3774 -27 c1 -52 3 -79 14 -154 4 -28 2
-49 -6 -58 -8 -10 -8 -14 -1 -14 6 0 9 -7 6 -15 -4 -8 -1 -15 6 -15 10 0 9 -4
-1 -16 -7 -9 -9 -18 -3 -22 9 -7 13 -71 19 -347 5 -215 13 -407 20 -480 3 -33
5 -112 5 -175 0 -63 0 -124 0 -135 4 -94 0 -673 -5 -755 -8 -113 -7 -352 2
-465 7 -102 7 -164 0 -171 -9 -9 -97 18 -99 31 0 5 -2 21 -4 35 -7 71 -36 248
-44 268 -5 12 -6 22 -1 22 5 0 7 33 4 73 -7 93 -7 99 6 182 6 39 13 95 16 125
3 30 7 78 10 105 20 191 25 731 10 1040 -7 121 -10 258 -8 305 4 96 4 83 4
329 -1 183 2 207 20 196 5 -4 9 -1 9 4 0 6 -7 11 -15 11 -8 0 -15 5 -15 10 0
6 8 10 18 10 12 0 13 3 5 8 -7 4 -15 33 -18 64 -5 54 -5 56 20 56 23 0 25 -4
26 -52z m-4467 -757 c-5 -8 3 -10 25 -7 17 2 31 2 31 -2 0 -3 16 -13 35 -20
20 -8 41 -20 47 -28 6 -7 26 -19 45 -27 18 -8 33 -21 33 -29 0 -9 5 -16 11
-16 5 0 19 -19 30 -42 11 -24 23 -50 28 -58 5 -8 22 -44 37 -79 16 -36 41 -81
56 -102 44 -62 85 -151 112 -245 27 -92 93 -377 106 -451 7 -41 34 -84 50 -80
4 1 20 -11 35 -28 l27 -30 -16 33 c-18 36 -8 42 19 12 27 -30 29 -17 6 29 -24
45 -27 61 -9 43 15 -15 32 -16 23 -2 -14 23 47 -4 77 -33 22 -22 33 -45 39
-81 13 -80 20 -105 35 -117 11 -9 14 -6 13 17 -1 54 -16 128 -28 132 -6 2 -11
27 -11 58 0 37 -8 70 -25 106 -30 62 -33 87 -9 67 24 -20 51 -79 63 -139 6
-30 18 -80 28 -110 11 -39 17 -107 20 -236 5 -170 4 -183 -17 -227 -51 -108
-162 -150 -259 -98 -12 7 -21 8 -20 4 4 -21 -2 -34 -12 -27 -8 4 -9 -1 -4 -16
5 -14 2 -25 -6 -31 -7 -4 -13 -24 -13 -43 0 -20 -3 -30 -7 -24 -4 7 -10 -5
-14 -28 -8 -39 -34 -94 -46 -94 -3 0 -12 -18 -19 -40 -7 -22 -17 -40 -21 -40
-4 0 -10 -8 -14 -19 -4 -12 -13 -17 -30 -15 -18 2 -29 -5 -42 -27 -12 -20 -19
-25 -25 -16 -6 9 -8 8 -8 -3 -1 -11 -4 -10 -15 4 -15 19 -15 19 -15 -2 0 -12
-6 -22 -14 -22 -8 0 -21 -3 -30 -6 -12 -4 -16 0 -16 15 0 12 -3 20 -7 20 -5
-1 -10 -1 -13 1 -3 1 -16 3 -29 6 -18 3 -22 1 -17 -12 4 -11 2 -15 -8 -11 -8
3 -17 -1 -20 -8 -3 -8 -12 -12 -20 -9 -10 4 -13 18 -11 52 2 30 -2 53 -11 62
-17 19 -23 86 -8 83 13 -2 12 -16 23 202 6 99 13 198 16 221 6 45 -15 108 -40
117 -8 4 -15 13 -15 22 0 8 -5 15 -11 15 -5 0 -15 14 -20 30 -6 17 -16 30 -23
30 -6 0 -22 14 -36 31 -31 38 -93 81 -165 114 -70 32 -98 38 -125 30 -38 -12
-18 -62 57 -140 62 -66 112 -149 98 -163 -3 -4 -10 -1 -14 6 -6 10 -13 6 -26
-14 -9 -15 -20 -23 -24 -17 -7 10 -21 11 -38 0 -10 -6 -13 1 -13 27 0 31 -3
36 -23 36 -13 0 -29 6 -36 13 -11 10 -11 8 -2 -10 16 -31 3 -29 -31 4 -22 21
-30 24 -41 14 -12 -9 -16 -7 -21 15 -6 23 -1 33 28 62 20 19 36 38 36 42 0 4
-16 23 -35 43 -38 39 -63 45 -122 28 -25 -7 -35 -6 -47 8 -9 10 -16 23 -16 29
0 7 -4 12 -10 12 -5 0 -10 5 -10 11 0 6 -6 17 -14 24 -7 8 -26 53 -42 102 -27
81 -29 99 -28 233 1 80 7 171 13 202 11 50 15 57 39 60 15 2 39 -2 55 -9 21
-11 27 -21 27 -45 0 -24 22 -85 46 -126 1 -2 11 2 22 9 17 10 23 10 36 0 9 -8
16 -19 16 -27 0 -16 75 -91 110 -108 37 -20 117 -36 187 -40 84 -4 193 13 200
30 8 20 -16 44 -43 44 -32 0 -75 21 -71 34 2 6 13 16 25 22 12 6 19 14 15 17
-5 6 20 9 43 6 4 0 10 4 14 11 5 8 24 5 70 -10 34 -12 72 -20 83 -18 18 3 17
5 -9 31 -48 48 -145 117 -173 123 -14 3 -44 12 -66 19 l-40 13 40 1 c45 1 100
-23 162 -70 49 -37 69 -32 32 7 -36 38 -96 70 -169 90 -93 26 -114 57 -57 87
45 24 146 24 231 -2 66 -20 93 -20 81 0 -4 5 1 9 10 9 38 0 -61 111 -120 135
-25 10 -46 13 -110 19 -27 3 -70 9 -95 14 -129 28 -163 33 -176 28 -8 -3 -14
-2 -14 3 0 5 -28 12 -61 15 -34 4 -70 13 -80 19 -15 9 -24 9 -39 -1 -12 -7
-20 -8 -20 -2 0 5 4 10 8 10 5 0 9 14 9 30 0 21 10 41 33 65 19 19 36 33 38
30 3 -2 13 7 24 20 11 14 23 23 27 20 5 -2 16 4 26 15 10 11 24 20 32 20 7 0
13 7 13 15 0 22 30 33 88 30 32 -2 65 3 80 11 33 17 46 18 36 3z m-554 -579
c0 -5 -4 -10 -10 -10 -5 0 -10 5 -10 10 0 6 5 10 10 10 6 0 10 -4 10 -10z
m-1539 -151 c12 -6 18 -17 15 -26 -3 -8 0 -24 8 -35 11 -15 12 -27 5 -45 -5
-14 -7 -28 -4 -33 9 -14 -6 -18 -110 -24 -55 -4 -154 -11 -220 -16 -66 -5
-199 -14 -295 -20 -96 -5 -227 -12 -290 -16 -149 -9 -154 -8 -194 18 -48 31
-59 52 -44 83 8 18 19 25 42 26 17 1 45 3 61 4 17 2 64 6 105 9 107 9 275 24
345 31 33 4 170 17 305 30 135 12 246 23 248 24 2 0 12 -4 23 -10z m2169 -18
c0 -5 -9 -11 -20 -14 -13 -3 -20 0 -20 9 0 8 9 14 20 14 11 0 20 -4 20 -9z
m1736 -26 c26 -40 29 -96 6 -142 l-21 -40 -138 -16 c-76 -9 -190 -22 -253 -27
-63 -6 -149 -14 -190 -19 -99 -11 -139 7 -175 80 -23 44 -24 53 -13 77 7 14
28 36 46 48 42 29 82 34 387 50 66 4 122 8 124 10 2 2 51 4 107 4 99 0 104 -1
120 -25z m-2138 -831 c5 3 17 -3 27 -14 14 -15 21 -17 32 -9 7 6 13 8 13 3 0
-5 5 -2 10 6 8 12 10 11 10 -7 0 -13 5 -23 10 -23 6 0 10 -7 10 -16 0 -13 -7
-15 -32 -10 -18 3 -34 10 -38 14 -3 4 -23 8 -46 8 -23 1 -54 9 -70 17 -27 14
-27 16 -9 22 11 4 27 10 35 15 8 4 20 3 27 -2 7 -5 16 -7 21 -4z m134 -66 c-9
-9 -12 -7 -12 12 0 19 3 21 12 12 9 -9 9 -15 0 -24z m-94 -72 c28 1 30 0 7 -3
-33 -5 -59 -23 -33 -23 16 0 32 -26 23 -40 -2 -4 -28 -2 -57 3 -47 10 -50 12
-24 17 16 3 31 11 34 18 2 7 -2 11 -9 10 -7 -2 -14 4 -16 14 -4 18 30 31 35
13 1 -6 19 -10 40 -9z m-162 -1 c4 -8 12 -15 19 -15 13 0 25 -21 25 -42 0 -7
-18 -8 -52 -4 -61 8 -84 23 -37 24 39 1 44 6 30 29 -6 10 -11 12 -11 6 0 -18
-20 -16 -20 2 0 8 9 15 20 15 11 0 23 -7 26 -15z m69 5 c4 -6 -7 -10 -24 -10
-17 0 -31 5 -31 10 0 6 11 10 24 10 14 0 28 -4 31 -10z m175 -20 c0 -5 -4 -10
-10 -10 -5 0 -10 5 -10 10 0 6 5 10 10 10 6 0 10 -4 10 -10z m-352 -22 c-3 -7
-13 -15 -23 -16 -15 -4 -16 -2 -4 12 17 19 32 21 27 4z m342 -29 c-7 -11 -9
-23 -6 -26 3 -3 43 -6 91 -6 72 -1 86 -4 91 -19 3 -10 16 -31 29 -46 40 -48
69 -112 56 -125 -8 -8 -6 -16 6 -29 12 -13 14 -21 6 -26 -12 -8 -28 -69 -24
-96 2 -14 -2 -18 -16 -14 -16 4 -18 -2 -16 -66 1 -39 4 -83 6 -98 l4 -27 -27
19 c-15 11 -30 17 -33 13 -4 -3 -15 0 -24 8 -16 13 -17 12 -4 -3 20 -27 -1
-45 -54 -46 -33 -1 -45 3 -45 13 0 8 -7 15 -15 15 -8 0 -15 5 -15 10 0 6 -7
10 -15 10 -8 0 -13 -6 -11 -12 1 -7 1 -10 -1 -5 -3 4 -11 7 -18 7 -7 0 -16 6
-18 13 -3 7 -6 4 -6 -6 -1 -10 -6 -15 -11 -12 -6 3 -14 -4 -19 -17 -10 -23
-10 -22 -10 5 -1 25 -14 36 -24 20 -2 -5 -2 -3 -1 4 2 6 -1 13 -7 15 -5 2 -11
21 -14 43 -2 22 -4 42 -4 44 -1 2 -8 -2 -16 -9 -9 -7 -18 -11 -21 -8 -8 9 30
77 44 79 6 1 17 3 22 4 6 1 17 3 26 4 11 1 14 7 10 17 -4 11 -2 15 7 11 7 -3
13 2 13 12 1 28 12 75 25 108 12 30 11 34 -11 58 -13 14 -41 30 -62 35 -21 6
-38 17 -38 25 0 7 -8 15 -17 17 -22 5 56 48 86 48 11 0 27 3 35 6 15 6 15 8
-1 19 -19 14 -15 18 32 28 11 3 21 5 23 6 1 0 -2 -8 -8 -20z m1768 -75 c258
-6 314 -10 325 -22 11 -13 13 -83 7 -172 -1 -14 5 -45 15 -70 23 -62 16 -232
-15 -356 -26 -101 -19 -94 -140 -134 -40 -14 -87 -22 -122 -21 -31 1 -60 -3
-63 -9 -4 -6 -13 -7 -23 -1 -9 4 -28 6 -42 4 -14 -2 -38 -5 -55 -6 -16 -1 -33
-5 -36 -9 -3 -5 -35 -9 -72 -11 -37 -2 -70 -7 -74 -10 -13 -13 -38 -7 -63 16
-31 27 -130 223 -130 256 0 20 -2 21 -15 11 -8 -7 -15 -9 -15 -6 0 4 -9 2 -19
-4 -16 -8 -23 -6 -33 8 -7 10 -40 33 -74 51 -53 28 -71 32 -140 33 -125 1
-166 -1 -160 -10 3 -5 -8 -6 -24 -4 -21 3 -32 -1 -36 -12 -7 -17 -34 -22 -34
-6 0 17 -18 11 -23 -7 -3 -11 -5 -7 -6 10 -1 17 3 26 9 22 6 -3 10 -2 10 4 0
5 3 17 7 27 5 13 3 15 -7 9 -10 -6 -12 -4 -6 11 5 10 11 28 14 39 3 11 22 51
42 90 35 67 38 70 82 79 l46 9 -27 24 -26 24 27 -4 c36 -6 45 19 17 50 -29 29
-22 35 25 22 21 -6 45 -7 54 -3 26 11 102 11 102 -1 0 -5 4 -4 9 4 6 9 10 10
16 2 3 -7 15 -9 26 -6 13 4 19 2 19 -9 0 -9 13 -18 34 -22 46 -8 74 -38 56
-59 -11 -13 -10 -18 6 -30 21 -16 53 -10 70 13 11 15 -2 72 -17 72 -5 0 -6 17
-1 73 1 9 8 17 15 17 6 0 23 9 37 20 19 15 36 18 70 15 25 -2 186 -7 358 -11z
m1132 -15 c0 -18 -18 -9 -23 12 -4 16 -3 18 9 8 8 -6 14 -15 14 -20z m-3095 1
c3 -5 2 -10 -4 -10 -5 0 -13 5 -16 10 -3 6 -2 10 4 10 5 0 13 -4 16 -10z
m3095 -40 c0 -5 -4 -10 -10 -10 -5 0 -10 5 -10 10 0 6 5 10 10 10 6 0 10 -4
10 -10z m-2010 -65 c0 -8 -2 -15 -4 -15 -2 0 -6 7 -10 15 -3 8 -1 15 4 15 6 0
10 -7 10 -15z m2007 -17 c-3 -8 -6 -5 -6 6 -1 11 2 17 5 13 3 -3 4 -12 1 -19z
m-2520 -253 c0 -17 -13 -20 -21 -6 -4 5 0 12 6 14 7 3 13 6 14 6 0 1 1 -6 1
-14z m4391 2 c24 -12 24 -15 27 -187 2 -96 6 -206 10 -245 9 -104 16 -216 18
-252 0 -18 3 -33 7 -33 7 0 10 -121 3 -133 -12 -20 -20 18 -15 75 2 37 0 58
-5 55 -23 -14 -46 21 -55 84 -4 35 -13 68 -18 73 -6 6 -10 19 -10 31 0 12 -6
27 -12 33 -7 7 -13 36 -14 63 -1 28 -7 56 -13 62 -6 6 -11 39 -11 73 0 35 -5
64 -10 66 -6 2 -16 49 -22 105 -13 126 -12 128 87 141 6 1 21 -4 33 -11z
m-4424 -23 c3 -8 2 -12 -4 -9 -6 3 -10 10 -10 16 0 14 7 11 14 -7z m318 -277
l5 -193 41 -44 c23 -25 67 -81 97 -126 59 -85 74 -135 69 -225 -1 -24 -5 -105
-9 -179 -5 -91 -20 -201 -46 -335 -35 -186 -44 -240 -53 -338 -2 -21 -6 -41
-10 -44 -17 -17 -8 204 17 412 27 227 29 512 4 623 -14 61 -53 153 -85 200 -7
10 -12 -67 -15 -233 0 -16 4 -64 10 -105 14 -95 11 -337 -6 -594 l-14 -199 34
-28 c19 -16 28 -29 22 -29 -7 0 -13 5 -13 11 0 5 -4 7 -10 4 -5 -3 -10 -1 -10
4 0 6 -7 11 -15 11 -9 0 -15 -9 -15 -23 0 -26 -94 -147 -115 -147 -8 0 -30
-14 -50 -31 -20 -18 -59 -44 -87 -58 -42 -22 -51 -32 -53 -56 -2 -17 -1 -24 2
-17 4 10 10 9 25 -5 21 -18 21 -18 8 7 -10 21 -10 23 1 13 16 -16 33 -17 23
-1 -5 8 -2 9 9 5 12 -4 17 -1 17 10 0 13 2 14 17 2 11 -10 14 -10 9 -1 -4 7
-1 12 9 12 9 0 13 5 10 10 -9 15 38 12 54 -3 11 -10 12 -9 6 2 -6 11 -2 13 18
9 15 -3 24 -1 21 4 -4 6 7 7 26 5 31 -5 65 -37 52 -47 -4 -3 -7 -30 -7 -62 0
-31 -3 -54 -6 -52 -4 2 -7 -11 -8 -29 0 -17 -3 -43 -6 -57 -4 -14 -7 -40 -7
-57 -1 -18 -5 -33 -9 -33 -4 0 -5 -9 -2 -20 3 -11 1 -20 -4 -20 -5 0 -9 -16
-8 -35 0 -19 -3 -35 -8 -35 -4 0 -5 -4 -2 -10 3 -5 0 -10 -7 -10 -8 0 -9 -3
-3 -8 13 -9 17 -32 6 -32 -5 0 -8 -13 -7 -30 1 -16 -1 -30 -4 -30 -3 0 -6 -8
-7 -17 -1 -10 -2 -32 -4 -50 -1 -18 -5 -30 -9 -28 -3 2 -5 -9 -4 -26 1 -16 -2
-29 -7 -29 -4 0 -5 -7 -2 -17 5 -11 3 -14 -6 -8 -10 6 -11 3 -2 -14 8 -15 9
-21 1 -21 -6 0 -9 -4 -6 -9 4 -5 1 -22 -5 -38 -9 -25 -20 -78 -22 -110 0 -7
-3 -13 -7 -13 -3 0 -5 -13 -4 -30 1 -16 -1 -30 -5 -30 -4 0 -6 -13 -5 -30 1
-16 -1 -30 -5 -30 -4 0 -7 -15 -6 -32 1 -18 -2 -36 -7 -39 -8 -5 -18 -49 -21
-91 -1 -10 -5 -18 -9 -18 -4 0 -7 -3 -6 -7 1 -5 -2 -28 -7 -53 -5 -25 -8 -48
-7 -52 1 -5 -3 -8 -9 -8 -6 0 -9 -9 -6 -20 3 -11 1 -20 -5 -20 -5 0 -6 -5 -3
-10 3 -5 1 -10 -5 -10 -8 0 -8 -6 0 -20 8 -14 8 -20 0 -20 -8 0 -8 -6 0 -20 8
-14 8 -20 0 -20 -8 0 -8 -6 0 -20 6 -11 7 -20 1 -20 -5 0 -8 -13 -7 -30 1 -16
-1 -31 -6 -32 -4 -2 -9 -15 -10 -30 -1 -16 -6 -28 -10 -28 -4 0 -5 -9 -3 -20
2 -11 -1 -20 -6 -20 -6 0 -8 -4 -5 -9 3 -4 -5 -30 -18 -57 -17 -35 -20 -51
-12 -56 7 -5 6 -8 -4 -8 -15 0 -20 -15 -23 -67 0 -13 -4 -23 -7 -23 -4 0 -7
-6 -8 -12 -1 -15 -7 -42 -20 -91 -6 -20 -7 -38 -4 -41 3 -3 0 -6 -7 -6 -7 0
-9 -5 -6 -10 8 -13 -16 -80 -30 -80 -5 0 -3 -5 5 -10 10 -6 11 -10 3 -10 -7 0
-12 -3 -12 -8 4 -25 -3 -42 -18 -42 -15 0 -16 -2 -3 -10 13 -9 13 -10 0 -11
-10 0 -8 -3 5 -9 11 -5 15 -9 9 -9 -7 -1 -15 -12 -18 -26 -4 -14 -12 -25 -19
-25 -8 0 -7 -4 3 -10 13 -9 13 -10 0 -10 -13 0 -13 -1 0 -10 12 -8 12 -10 -5
-10 -15 0 -17 -2 -6 -9 9 -6 10 -11 2 -15 -6 -4 -9 -12 -6 -17 4 -5 1 -9 -5
-9 -6 0 -8 -5 -5 -10 3 -5 0 -10 -7 -10 -9 0 -9 -3 2 -10 12 -8 12 -10 1 -10
-8 0 -11 -3 -8 -7 4 -3 2 -12 -4 -20 -6 -7 -8 -13 -3 -13 5 0 2 -5 -6 -10 -13
-9 -13 -10 0 -10 11 0 12 -2 3 -8 -6 -4 -15 -37 -18 -72 -3 -36 -11 -67 -17
-69 -6 -2 -5 -7 3 -12 11 -7 11 -9 1 -9 -7 0 -10 -4 -7 -10 3 -5 1 -10 -6 -10
-7 0 -9 -10 -7 -25 4 -18 1 -25 -11 -25 -14 0 -14 -2 -1 -10 12 -7 12 -10 1
-10 -8 0 -11 -6 -7 -17 4 -9 1 -20 -6 -25 -11 -6 -10 -10 0 -17 11 -6 10 -10
-3 -15 -10 -3 -15 -12 -11 -21 3 -8 1 -15 -5 -15 -6 0 -7 -4 -4 -10 3 -5 1
-10 -6 -10 -7 0 -10 -3 -6 -6 3 -4 0 -21 -8 -39 -7 -19 -11 -36 -7 -39 3 -3
-3 -6 -14 -6 -16 0 -17 -2 -4 -10 12 -8 10 -10 -10 -11 -23 0 -23 -1 -5 -9
l20 -9 -20 0 c-15 -1 -17 -3 -6 -10 9 -6 10 -11 2 -15 -6 -4 -9 -12 -6 -17 4
-5 1 -9 -5 -9 -6 0 -8 -5 -5 -10 4 -6 -6 -10 -22 -11 -25 0 -26 -1 -8 -9 18
-8 18 -9 -5 -9 -20 -1 -22 -3 -10 -11 12 -8 10 -10 -10 -11 -23 -1 -23 -2 5
-9 l30 -8 -32 -1 c-21 -1 -32 -6 -30 -14 1 -6 -4 -11 -12 -9 -8 2 -18 -3 -22
-10 -5 -7 -12 -14 -16 -14 -28 -5 -52 -18 -47 -25 3 -5 1 -9 -4 -9 -15 0 -32
-49 -32 -95 0 -37 5 -50 31 -75 18 -16 40 -30 49 -30 13 0 17 -7 15 -28 -3
-42 -15 -72 -28 -72 -7 0 -6 -4 3 -10 11 -7 11 -10 2 -10 -7 0 -10 -4 -7 -10
3 -5 2 -10 -3 -10 -4 0 -9 -13 -10 -30 -5 -71 -6 -80 -15 -80 -4 0 -5 -4 -2
-10 3 -5 1 -10 -5 -10 -6 0 -8 -5 -5 -10 3 -6 -1 -13 -10 -16 -13 -6 -14 -8
-3 -15 10 -7 11 -9 0 -9 -7 0 -10 -4 -7 -10 3 -5 1 -10 -5 -10 -6 0 -9 -4 -5
-10 3 -5 -3 -18 -14 -29 -13 -13 -16 -21 -8 -25 7 -2 3 -5 -8 -6 l-20 -1 20
-9 c18 -8 18 -9 -5 -10 -21 -1 -22 -2 -6 -9 17 -7 17 -8 2 -23 -9 -9 -16 -20
-16 -25 0 -4 -8 -13 -18 -19 -16 -11 -18 -8 -21 30 -1 22 -4 59 -6 81 -6 65
-5 548 0 580 3 17 11 53 18 80 14 58 17 631 4 835 -13 213 -26 357 -37 404
-10 44 -20 464 -23 958 -1 142 -4 253 -6 247 -2 -8 -7 -7 -13 2 -6 10 -7 7 -3
-8 3 -13 2 -23 -2 -23 -9 0 -39 -69 -35 -82 1 -5 -2 -8 -6 -8 -13 0 -10 -30 2
-31 6 0 2 -4 -9 -9 -11 -5 -15 -9 -8 -9 7 -1 10 -10 8 -22 -2 -12 2 -34 11
-50 9 -18 10 -29 4 -29 -8 0 -8 -6 0 -20 8 -15 8 -20 -2 -20 -10 0 -10 -2 0
-9 8 -4 14 -12 14 -16 0 -4 -6 -12 -14 -16 -7 -5 -8 -9 -3 -9 6 0 10 -32 10
-77 0 -43 3 -86 8 -95 5 -12 3 -18 -5 -18 -8 0 -9 -3 -3 -8 12 -9 18 -32 8
-32 -5 0 -8 -24 -8 -54 0 -30 3 -52 7 -50 11 7 4 -50 -7 -58 -6 -5 -4 -8 5 -8
13 0 13 -1 0 -10 -8 -5 -10 -10 -4 -10 12 0 11 -91 -1 -110 -3 -6 -3 -10 2
-10 4 0 8 -63 8 -140 0 -87 -4 -140 -10 -140 -5 0 -3 -5 5 -10 13 -9 13 -10 0
-10 -13 0 -13 -1 0 -10 12 -8 10 -10 -10 -11 -23 0 -23 -1 -5 -9 14 -6 15 -9
5 -10 -10 -1 -9 -4 5 -10 18 -8 18 -9 -5 -10 l-25 -2 25 -8 c14 -4 21 -8 15
-9 -12 -1 -14 -51 -2 -51 5 0 5 -4 2 -10 -3 -5 -1 -19 5 -30 8 -15 8 -20 -2
-20 -9 0 -9 -3 2 -10 13 -9 13 -10 0 -11 -10 0 -8 -3 5 -9 18 -8 18 -9 -5 -10
l-25 -2 25 -8 c21 -7 22 -8 5 -10 l-20 -1 20 -9 c13 -6 15 -9 5 -9 -13 -1 -13
-2 0 -11 13 -9 13 -11 0 -20 -10 -6 -11 -10 -3 -10 17 0 12 -23 -7 -32 -12 -5
-11 -7 5 -8 17 -2 16 -3 -5 -10 l-25 -8 25 -1 c20 -1 22 -3 10 -11 -8 -5 -10
-10 -4 -10 6 0 10 -16 9 -35 -1 -19 3 -35 9 -36 6 -1 0 -5 -14 -9 -21 -7 -22
-8 -5 -9 17 -1 17 -3 5 -11 -12 -8 -10 -10 10 -11 22 0 23 -1 6 -8 -14 -5 -16
-10 -8 -15 7 -4 12 -12 12 -17 0 -6 -5 -7 -12 -3 -8 5 -9 0 -6 -14 4 -13 1
-22 -5 -22 -7 0 -5 -5 3 -10 13 -9 13 -10 0 -11 -10 0 -8 -3 5 -9 18 -8 18 -9
-5 -10 -15 -2 -19 -4 -9 -7 11 -3 15 -12 11 -28 -3 -18 0 -25 12 -25 9 0 16
-4 16 -9 0 -5 -10 -7 -22 -4 -19 4 -20 3 -8 -6 13 -10 13 -11 0 -12 -10 0 -8
-3 5 -9 18 -8 18 -9 -5 -10 l-25 -2 25 -8 25 -8 -25 -2 c-20 -2 -21 -3 -6 -7
15 -4 16 -7 5 -14 -9 -6 -10 -12 -4 -16 15 -12 17 -33 2 -33 -8 0 -7 -4 3 -10
12 -8 10 -10 -10 -11 l-25 -1 25 -8 c14 -4 18 -9 10 -9 -13 -1 -13 -2 0 -11
12 -8 12 -10 -5 -11 -11 0 -14 -3 -7 -6 6 -2 12 -13 12 -24 0 -10 -6 -19 -12
-20 -7 0 -4 -4 7 -9 13 -6 15 -9 5 -9 -13 -1 -13 -2 0 -11 12 -8 12 -10 -5
-11 l-20 0 20 -9 20 -9 -20 -1 -20 -1 20 -9 c18 -8 18 -9 -5 -10 l-25 -2 25
-8 c14 -4 20 -8 14 -9 -14 -1 -14 -34 0 -43 7 -5 3 -8 -9 -9 l-20 0 20 -9 c18
-8 18 -9 -5 -10 l-25 -2 25 -8 c21 -7 22 -8 5 -9 -17 -1 -17 -3 -5 -11 13 -8
13 -10 -1 -10 -9 0 -19 -7 -23 -15 -3 -8 -1 -15 4 -15 6 0 10 -6 10 -14 0 -8
5 -16 11 -18 8 -3 6 -10 -5 -21 -16 -16 -16 -17 1 -17 15 0 16 -2 3 -10 -12
-8 -12 -10 5 -11 17 -1 16 -2 -5 -9 l-25 -8 25 -2 25 -2 -25 -8 c-21 -7 -22
-8 -5 -10 17 -2 16 -3 -5 -10 -21 -7 -22 -8 -5 -10 l20 -1 -20 -9 c-17 -7 -17
-9 -3 -9 17 -1 17 -2 1 -21 -10 -11 -25 -20 -35 -20 -10 0 -18 -4 -18 -9 0 -5
-12 -12 -27 -14 -26 -4 -26 -4 5 -6 17 0 32 4 32 9 0 6 10 10 23 9 21 0 21 -1
2 -9 -19 -8 -18 -9 5 -11 21 -1 19 -3 -10 -9 -29 -6 -31 -8 -10 -9 23 -2 24
-3 5 -11 -17 -7 -16 -9 10 -10 26 -1 27 -3 10 -10 l-20 -9 20 0 c11 -1 16 -5
10 -9 -16 -11 -19 -46 -3 -36 11 6 11 5 0 -8 -10 -13 -10 -17 0 -21 7 -3 2 -6
-12 -7 l-25 -2 25 -8 c25 -8 25 -8 -5 -10 -21 -2 -24 -4 -11 -7 15 -4 16 -7 5
-14 -11 -7 -10 -9 6 -10 l20 0 -20 -9 c-17 -7 -17 -9 -2 -9 10 -1 17 -9 17
-21 0 -17 -7 -20 -57 -22 l-58 -1 60 -7 60 -7 -60 -3 -60 -3 60 -7 c54 -6 56
-7 20 -10 l-40 -3 50 -7 c36 -5 42 -7 20 -9 -26 -2 -27 -3 -10 -11 11 -5 14
-9 7 -9 -7 -1 -11 -5 -7 -10 3 -5 0 -13 -7 -17 -8 -5 -6 -10 8 -15 12 -5 1 -8
-31 -6 -41 2 -50 5 -49 20 1 9 -3 17 -10 18 -6 0 -2 4 9 9 l20 9 -20 0 c-16 1
-24 15 -40 66 -10 36 -22 65 -25 65 -4 0 -7 6 -7 13 -1 6 -10 41 -22 76 -12
35 -21 65 -21 67 0 2 12 5 28 5 27 2 27 2 2 6 -29 6 -44 24 -27 35 8 5 6 9 -6
14 -9 3 -17 11 -17 16 0 6 -6 24 -14 41 -19 43 -46 132 -46 151 0 9 -9 42 -19
73 -37 110 -122 411 -201 708 -17 66 -38 138 -46 160 -7 22 -34 121 -60 220
-25 99 -56 221 -69 270 -21 85 -42 171 -101 430 -33 144 -123 580 -129 625 -3
19 -8 43 -11 52 -14 45 -15 70 -2 62 7 -4 4 2 -6 14 -23 26 -16 40 8 17 9 -9
16 -12 16 -6 0 5 -12 19 -27 30 -14 12 -24 24 -21 26 3 3 11 -1 18 -10 7 -8
17 -15 22 -15 6 0 4 8 -3 17 -12 15 -12 16 5 10 16 -6 17 -5 7 7 -7 8 -9 21
-5 27 4 8 3 9 -4 5 -9 -5 -9 -1 -3 17 6 16 6 28 -2 36 -18 18 5 13 26 -6 19
-17 20 -17 9 3 -6 12 -8 25 -4 29 4 5 1 5 -5 1 -9 -5 -11 -2 -7 8 3 9 2 16 -4
16 -6 0 -12 -5 -14 -11 -2 -7 -10 -4 -18 7 -11 13 -12 16 -1 10 8 -5 16 -4 21
3 5 9 11 9 23 -3 29 -30 31 -16 1 17 -16 17 -22 26 -14 20 20 -18 26 -16 26 7
0 13 -5 19 -13 16 -18 -7 -16 9 2 24 13 11 13 15 3 21 -7 5 -8 9 -3 9 6 -1 19
-7 29 -15 10 -8 23 -12 28 -9 5 3 18 -2 28 -11 10 -9 24 -14 29 -10 6 3 11 1
11 -5 0 -6 4 -9 9 -6 14 9 42 -5 35 -18 -3 -6 3 -1 15 12 11 12 22 18 26 13 3
-6 12 -8 19 -5 8 3 17 1 21 -5 3 -6 11 -11 17 -11 6 0 3 10 -8 22 l-19 22 26
-19 c14 -11 26 -26 25 -34 -1 -7 6 -16 14 -18 9 -3 11 -1 4 4 -5 4 -10 18 -10
30 0 17 3 19 13 11 7 -6 10 -14 7 -19 -3 -5 2 -6 11 -3 14 6 14 9 -2 28 -14
17 -12 16 9 -3 15 -13 25 -27 23 -32 -3 -4 0 -11 7 -15 7 -4 10 -4 6 0 -4 5
-1 14 5 21 9 10 15 10 26 1 12 -9 12 -7 2 13 -13 23 -13 23 9 8 17 -12 28 -13
42 -6 11 6 22 8 25 5 3 -3 12 2 20 12 12 16 13 16 6 -2 -5 -15 -3 -18 10 -13
21 8 49 -2 41 -14 -3 -5 1 -9 8 -9 8 0 20 -9 28 -21 27 -38 74 -92 133 -152
31 -32 57 -61 57 -64 0 -7 70 -73 77 -73 3 0 1 6 -4 13 -5 6 -16 28 -23 47 -8
19 -29 56 -47 82 -18 26 -33 51 -33 55 0 5 -15 21 -34 38 -18 16 -32 35 -29
42 3 7 0 13 -6 13 -6 0 -11 5 -11 11 0 7 -10 20 -22 30 -11 11 -17 19 -13 19
5 0 -1 9 -13 20 -12 12 -22 30 -22 40 0 11 -6 20 -12 20 -9 0 -8 4 2 10 21 13
43 12 34 -2 -5 -7 -3 -8 6 -3 7 4 15 4 19 -1 11 -16 62 -35 73 -27 8 4 9 0 5
-11 -6 -14 -3 -17 9 -12 12 5 15 2 10 -10 -4 -10 -1 -14 6 -11 7 2 26 -10 41
-26 15 -16 31 -27 34 -23 14 14 122 -115 164 -197 l43 -85 63 57 c35 31 63 61
63 66 0 35 -132 251 -235 385 -48 62 -110 110 -142 110 -29 0 -38 -17 -21 -37
11 -14 11 -15 -2 -10 -8 4 -23 10 -32 13 -10 4 -18 10 -18 15 0 5 -7 9 -16 9
-9 0 -12 5 -8 13 6 9 4 9 -8 -1 -11 -9 -22 -9 -39 -3 -13 5 -18 10 -11 10 7 1
10 6 7 12 -4 6 -13 8 -21 5 -8 -3 -14 1 -14 9 0 7 -10 15 -22 17 -13 2 -22 9
-21 15 2 7 -3 10 -11 7 -7 -3 -25 8 -39 25 -13 16 -28 27 -31 24 -3 -4 -6 -2
-6 4 0 6 -11 14 -25 17 -14 4 -25 13 -25 22 0 8 -4 12 -10 9 -5 -3 -10 0 -10
8 0 8 -11 18 -25 21 -14 4 -24 10 -23 14 1 4 -5 21 -15 39 -26 49 -57 137 -62
178 -3 20 -10 45 -15 55 -25 46 -1 79 33 46 24 -24 124 -207 158 -289 35 -86
38 -88 155 -132 38 -14 79 -33 92 -41 12 -8 28 -12 34 -8 6 4 8 3 5 -3 -4 -6
0 -13 8 -16 9 -4 12 -1 8 9 -3 8 1 14 10 14 8 0 17 9 20 20 3 11 13 23 24 26
10 4 28 16 40 26 16 15 26 17 40 10 10 -6 47 -14 81 -18 44 -5 62 -11 62 -21
0 -8 6 -13 13 -10 6 2 11 9 10 14 -3 17 58 1 70 -18 7 -11 17 -19 24 -19 6 0
13 -5 15 -12 3 -8 11 -9 24 -3 10 5 28 9 40 9 11 1 29 9 39 20 10 10 31 23 46
28 16 5 34 23 43 43 9 18 20 35 24 37 4 2 18 17 30 34 12 18 34 35 49 39 16 3
36 13 45 22 11 9 25 12 39 8 18 -6 21 -4 16 9 -4 10 -1 16 8 16 8 0 15 -9 15
-19 0 -23 30 -37 42 -19 6 10 8 8 8 -4 0 -10 4 -18 9 -18 11 0 5 -121 -7 -129
-4 -3 -8 -28 -8 -56 1 -27 -3 -53 -9 -57 -23 -16 6 -18 40 -3 19 10 38 15 42
11 9 -8 39 29 75 94 18 30 36 58 42 62 7 5 7 8 -1 8 -23 0 -14 19 12 26 21 5
24 10 19 38 -13 67 -5 109 65 351 40 138 75 259 78 270 9 33 -10 7 -32 -43
-30 -71 -108 -190 -127 -195 -9 -3 -18 -15 -20 -28 -2 -16 -9 -23 -20 -21 -10
2 -18 -2 -18 -8 0 -5 -9 -10 -20 -10 -11 0 -20 -4 -20 -10 0 -5 7 -10 16 -10
8 0 12 -5 9 -10 -4 -6 -11 -7 -17 -4 -6 4 -19 -4 -28 -17 -16 -21 -21 -22 -45
-11 -17 8 -25 18 -21 27 4 12 -4 14 -47 10 -29 -3 -60 -8 -69 -11 -12 -4 -18
0 -18 11 0 12 6 16 20 12 22 -6 25 0 10 23 -7 11 -4 17 8 22 12 6 10 7 -8 5
-15 -1 -24 3 -23 10 2 7 -4 10 -12 7 -8 -4 -15 -10 -15 -15 0 -5 -4 -9 -10 -9
-5 0 -9 8 -8 18 3 40 -2 50 -22 45 -16 -4 -20 0 -20 21 0 29 -25 45 -43 27 -8
-8 -8 -11 3 -11 26 0 0 -13 -28 -14 -28 -1 -35 14 -19 41 7 12 -19 26 -33 18
-5 -3 -11 -1 -15 5 -3 5 -1 10 6 10 7 0 9 3 6 6 -9 10 32 64 46 61 8 -1 12 13
12 39 0 34 6 46 40 79 32 31 36 40 23 43 -11 2 -15 9 -11 20 7 19 73 82 86 82
5 0 6 3 3 8 -8 13 18 38 62 61 25 13 42 28 42 39 0 25 28 62 43 56 19 -7 93
76 89 99 -2 12 1 17 7 13 6 -4 11 -2 11 5 0 6 18 38 40 71 22 33 40 63 40 67
0 4 13 22 28 39 16 17 35 44 43 59 8 16 22 37 32 47 9 11 17 25 17 31 0 5 11
19 25 29 14 10 25 25 25 32 0 8 4 14 9 14 4 0 10 -87 13 -193z m2262 21 c9
-34 8 -38 -9 -38 -10 0 -15 10 -15 30 0 35 15 40 24 8z m5 -146 c8 -85 6 -135
-5 -139 -7 -2 -11 17 -10 58 1 33 -2 63 -6 66 -10 5 -10 57 -1 66 11 12 17 -2
22 -51z m5 -170 c2 -4 1 -14 -3 -21 -6 -9 -10 -7 -14 8 -5 20 7 29 17 13z m6
-62 c0 -11 -4 -20 -10 -20 -5 0 -10 9 -10 20 0 11 5 20 10 20 6 0 10 -9 10
-20z m8 -99 c-15 -25 -28 -27 -28 -6 0 8 5 15 10 15 6 0 10 8 10 17 0 12 3 14
11 6 8 -8 7 -17 -3 -32z m17 -131 c3 -5 1 -10 -4 -10 -6 0 -11 5 -11 10 0 6 2
10 4 10 3 0 8 -4 11 -10z m-13 -52 c-7 -7 -12 -8 -12 -2 0 14 12 26 19 19 2
-3 -1 -11 -7 -17z m1895 -30 c-3 -8 -6 -5 -6 6 -1 11 2 17 5 13 3 -3 4 -12 1
-19z m-1880 -50 c-3 -8 -6 -5 -6 6 -1 11 2 17 5 13 3 -3 4 -12 1 -19z m-4237
-404 c0 -2 -7 -4 -15 -4 -8 0 -15 4 -15 10 0 5 7 7 15 4 8 -4 15 -8 15 -10z
m33 -134 c3 -11 1 -18 -4 -14 -5 3 -9 12 -9 20 0 20 7 17 13 -6z m61 -117 c2
-2 19 3 37 13 46 23 88 34 94 24 3 -5 -9 -11 -27 -15 -45 -8 -128 -46 -128
-58 0 -5 -7 -7 -14 -4 -11 4 -13 1 -9 -10 5 -12 2 -15 -10 -10 -9 3 -21 -1
-29 -11 -12 -16 -11 -16 7 -2 18 14 19 14 7 -2 -8 -10 -17 -17 -20 -16 -20 2
-32 -3 -27 -12 3 -5 -1 -10 -9 -10 -8 0 -18 -4 -21 -10 -4 -6 1 -7 12 -3 16 6
16 4 -2 -16 -12 -14 -21 -18 -23 -11 -3 7 -10 1 -16 -12 -7 -14 -19 -22 -30
-20 -10 2 -16 0 -13 -5 2 -4 -13 -25 -33 -46 -29 -30 -39 -35 -43 -23 -4 9 -1
13 6 10 16 -6 20 58 4 68 -19 12 10 10 33 -2 15 -8 18 -7 14 4 -3 8 5 21 18
30 17 12 19 16 6 16 -9 0 -18 3 -21 8 -2 4 -2 1 -1 -5 4 -15 -15 -17 -36 -3
-13 8 -12 10 4 10 15 0 16 3 6 15 -10 12 -8 13 10 10 19 -4 20 -2 8 12 -11 15
-10 16 10 11 12 -4 20 -2 16 3 -3 5 0 9 6 9 6 0 8 5 5 10 -3 6 -11 10 -16 10
-6 0 -7 -4 -4 -10 3 -5 1 -10 -4 -10 -13 0 -14 10 -3 28 5 7 17 10 28 6 10 -3
4 4 -13 16 -41 27 -43 35 -3 15 37 -19 51 -19 26 0 -14 11 -16 15 -5 15 22 0
42 -17 35 -29 -4 -6 5 -13 21 -17 40 -10 47 -15 32 -26 -12 -8 -11 -9 0 -6 24
7 23 24 -1 37 -23 11 -22 11 3 6 27 -5 46 16 33 36 -3 5 0 9 7 9 7 0 4 7 -7
16 -18 15 -18 15 11 11 27 -5 28 -4 10 9 -16 12 -17 14 -2 14 9 0 17 6 17 13
1 6 9 -10 20 -37 10 -26 21 -50 24 -53z m-115 13 c19 -7 31 -15 25 -17 -5 -3
-25 2 -44 12 -40 21 -31 23 19 5z m-129 -170 c0 -11 -19 -15 -25 -6 -3 5 1 10
9 10 9 0 16 -2 16 -4z m97 -305 c0 -11 -5 -18 -9 -15 -4 3 -5 11 -1 19 7 21
12 19 10 -4z m68 -13 c2 -2 0 -10 -5 -18 -8 -13 -13 -12 -31 6 l-21 21 27 -2
c15 -2 28 -5 30 -7z m341 -30 c4 -7 3 -8 -4 -4 -7 4 -12 2 -12 -4 0 -6 -5 -8
-11 -4 -8 4 -7 9 2 15 18 11 17 11 25 -3z m-497 -205 c2 -2 -3 -3 -11 -3 -9 0
-19 7 -22 16 -6 15 -4 15 11 3 10 -7 20 -15 22 -16z m914 -3330 c-7 -2 -21 -2
-30 0 -10 3 -4 5 12 5 17 0 24 -2 18 -5z m-40 -25 c4 -10 8 -10 14 -2 6 9 12
7 23 -4 13 -14 12 -15 -3 -9 -11 4 -22 -1 -32 -16 -15 -21 -16 -21 -13 -2 1
11 -1 26 -5 33 -5 6 -4 12 2 12 5 0 12 -6 14 -12z m37 -32 c0 -3 -4 -8 -10
-11 -5 -3 -10 -1 -10 4 0 6 5 11 10 11 6 0 10 -2 10 -4z m20 -11 c-8 -10 -9
-15 -2 -15 6 0 9 -7 6 -15 -4 -8 -10 -15 -16 -15 -5 0 -6 5 -3 10 3 6 1 10 -4
10 -7 0 -7 7 1 20 7 11 17 20 22 20 4 0 3 -7 -4 -15z m127 -171 c-3 -3 -12 -4
-19 -1 -8 3 -5 6 6 6 11 1 17 -2 13 -5z"/>
<path d="M6550 7861 c0 -6 4 -13 10 -16 6 -3 7 1 4 9 -7 18 -14 21 -14 7z"/>
<path d="M6570 7794 c0 -8 5 -12 10 -9 6 4 8 11 5 16 -9 14 -15 11 -15 -7z"/>
<path d="M6574 7753 c0 -10 -4 -28 -8 -40 -11 -33 62 -100 80 -72 11 19 -6 74
-31 102 -30 31 -41 34 -41 10z"/>
<path d="M6490 7451 c0 -6 4 -13 10 -16 6 -3 7 1 4 9 -7 18 -14 21 -14 7z"/>
<path d="M6201 7404 c0 -11 3 -14 6 -6 3 7 2 16 -1 19 -3 4 -6 -2 -5 -13z"/>
<path d="M5955 5550 c3 -5 8 -10 11 -10 2 0 4 5 4 10 0 6 -5 10 -11 10 -5 0
-7 -4 -4 -10z"/>
<path d="M5828 5278 c6 -6 18 -8 28 -6 14 3 12 5 -9 10 -19 3 -25 2 -19 -4z"/>
<path d="M5957 4976 c-6 -15 1 -26 15 -26 11 0 10 27 -1 34 -5 3 -11 0 -14 -8z"/>
<path d="M5927 4883 c-11 -27 -20 -51 -19 -55 1 -5 -3 -8 -9 -8 -5 0 -7 -4 -4
-10 3 -5 1 -19 -5 -30 -6 -12 -12 -34 -12 -50 -1 -17 -5 -27 -11 -23 -6 3 -7
1 -3 -5 8 -14 98 -5 108 11 4 6 5 32 1 57 -3 25 -6 71 -6 103 -1 31 -5 57 -9
57 -5 0 -19 -21 -31 -47z"/>
<path d="M4350 4696 c0 -2 8 -10 18 -17 15 -13 16 -12 3 4 -13 16 -21 21 -21
13z"/>
<path d="M4500 4655 c16 -17 26 -21 31 -14 4 7 13 8 20 4 8 -4 4 2 -8 14 -25
24 -42 29 -23 6 9 -11 9 -15 1 -15 -6 0 -14 7 -17 15 -4 8 -11 15 -17 15 -6 0
0 -11 13 -25z"/>
<path d="M5690 4541 c-141 -52 -142 -52 -130 -66 9 -11 86 -14 93 -4 2 2 8 15
14 29 l12 25 0 -27 c1 -30 5 -32 36 -18 11 5 14 9 8 9 -7 1 -13 5 -13 11 0 5
7 7 15 4 9 -4 15 0 15 10 0 9 5 16 11 16 5 0 7 5 4 10 -3 6 1 10 10 10 10 0
13 -5 9 -12 -4 -7 -3 -8 5 -4 9 6 9 11 0 22 -6 8 -12 14 -13 13 0 0 -35 -13
-76 -28z m-50 -55 c0 -2 -7 -7 -16 -10 -8 -3 -12 -2 -9 4 6 10 25 14 25 6z"/>
<path d="M4270 4536 c0 -2 7 -7 16 -10 8 -3 12 -2 9 4 -6 10 -25 14 -25 6z"/>
<path d="M5520 4476 c0 -2 7 -7 16 -10 8 -3 12 -2 9 4 -6 10 -25 14 -25 6z"/>
<path d="M5423 4349 c-6 -6 -22 -16 -34 -23 -13 -6 -30 -23 -38 -38 -14 -24
-14 -30 1 -62 19 -39 69 -70 98 -61 11 3 29 19 41 36 26 37 19 80 -19 110 -15
11 -29 27 -32 35 -4 11 -8 12 -17 3z m-3 -83 c0 -7 10 -17 23 -21 12 -3 17 -9
10 -11 -17 -7 -53 14 -53 31 0 8 5 15 10 15 6 0 10 -6 10 -14z m-20 -31 c0 -5
-5 -3 -10 5 -5 8 -10 20 -10 25 0 6 5 3 10 -5 5 -8 10 -19 10 -25z"/>
<path d="M5235 4200 c-3 -5 -1 -10 4 -10 6 0 11 5 11 10 0 6 -2 10 -4 10 -3 0
-8 -4 -11 -10z"/>
<path d="M5427 3069 c-59 -16 -87 -92 -49 -139 11 -13 33 -23 59 -27 41 -5 42
-5 72 43 18 27 30 58 28 71 -2 13 -6 22 -9 21 -3 -2 -14 4 -24 13 -27 23 -45
27 -77 18z m69 -58 c-12 -18 -24 -12 -19 9 5 18 2 19 -26 14 -36 -7 -42 3 -8
15 16 7 27 4 41 -9 10 -10 15 -23 12 -29z m-66 -11 c0 -5 -5 -10 -11 -10 -5 0
-7 5 -4 10 3 6 8 10 11 10 2 0 4 -4 4 -10z"/>
<path d="M4997 1570 c-9 -11 -13 -20 -7 -20 5 0 14 9 20 20 6 11 9 20 8 20 -2
0 -11 -9 -21 -20z"/>
<path d="M5098 1583 c7 -3 16 -2 19 1 4 3 -2 6 -13 5 -11 0 -14 -3 -6 -6z"/>
<path d="M5096 1205 c-4 -11 2 -15 22 -14 17 1 20 3 9 6 -9 2 -15 9 -12 14 4
5 2 9 -3 9 -6 0 -12 -7 -16 -15z"/>
<path d="M4325 5139 c-11 -16 -1 -19 13 -3 7 8 8 14 3 14 -5 0 -13 -5 -16 -11z"/>
<path d="M4270 5096 c0 -2 7 -7 16 -10 8 -3 12 -2 9 4 -6 10 -25 14 -25 6z"/>
</g>
</svg>
